<?xml version="1.0" encoding="utf-8"?>
<!-- Generator: Adobe Illustrator 25.0.1, SVG Export Plug-In . SVG Version: 6.00 Build 0)  -->
<svg version="1.1" id="Layer_1" xmlns="http://www.w3.org/2000/svg" xmlns:xlink="http://www.w3.org/1999/xlink" x="0px" y="0px"
	 viewBox="0 0 1017 251" style="enable-background:new 0 0 1017 251;" xml:space="preserve">
<style type="text/css">
	.st0{fill:none;stroke:#F15A24;stroke-width:3;stroke-linecap:round;stroke-linejoin:round;stroke-miterlimit:1;}
</style>
<g>
	<path class="st0" d="M570.71,151.96c0.12,4.41,1.12,8.25,3.01,11.51c1.89,3.26,4.58,5.83,8.06,7.7c3.48,1.87,7.71,2.81,12.67,2.81
		c9.57,0,17.96-1.81,25.17-5.44c5.5-2.77,9.75-6.34,12.77-10.73c0.15,2.04,0.49,3.93,1.05,5.65c1.06,3.26,2.86,5.83,5.41,7.7
		c2.54,1.87,5.82,2.81,9.84,2.81c3.19,0,6.53-0.85,10.01-2.54c3.48-1.69,6.94-3.99,10.37-6.89c0.59,3.15,2.04,5.5,4.34,7.07
		c2.3,1.57,5.29,2.36,8.95,2.36c2.84,0,5.7-0.55,8.59-1.63c2.89-1.09,5.61-2.54,8.15-4.35c2.37-1.69,4.52-3.68,6.48-5.95
		c0.04,2.4,0.48,4.46,1.41,6.13c1.06,1.93,2.63,3.38,4.7,4.35c2.07,0.97,4.52,1.45,7.35,1.45s5.7-0.55,8.6-1.63
		c2.89-1.09,5.61-2.54,8.15-4.35c2.12-1.51,4.06-3.26,5.85-5.24c-0.12,2.21,0.13,4.09,0.8,5.6c1.66,3.75,5.85,5.62,12.58,5.62
		c2.6,0,4.79-0.19,6.56-0.56c1.06-0.24,2.07-0.49,3.01-0.74l3.72-7.95h-1.77c-2.72,0-4.43-0.72-5.14-2.17
		c-0.71-1.45-0.53-3.45,0.53-5.98c0.35-0.97,1.06-2.78,2.13-5.44c1.06-2.66,2.22-5.59,3.46-8.79c1.24-3.2,2.51-6.37,3.81-9.52
		c1.3-3.14,2.3-5.68,3.01-7.61c0.24-0.85,0.5-1.63,0.8-2.36c0.29-0.73,0.56-1.45,0.8-2.18c1.77-1.57,3.54-2.72,5.32-3.44
		c1.77-0.72,3.31-1,4.61-0.82c1.3,0.18,2.27,0.79,2.92,1.81c0.65,1.03,0.62,2.45-0.09,4.26c-1.66,3.99-3.19,7.79-4.61,11.42
		c-1.3,3.14-2.54,6.28-3.72,9.42c-1.18,3.15-2.13,5.56-2.84,7.25c-3.31,7.98-4.11,13.87-2.39,17.67c1.71,3.81,5.94,5.71,12.67,5.71
		c2.6,0,4.78-0.19,6.56-0.56c1.06-0.24,2.07-0.49,3.01-0.74l3.55-7.95h-1.77c-2.6,0-4.25-0.72-4.96-2.17
		c-0.71-1.45-0.59-3.45,0.35-5.98l12.76-31.72c0.24-0.84,0.5-1.63,0.8-2.35c0.29-0.73,0.56-1.45,0.8-2.18
		c1.65-1.45,3.37-2.47,5.14-3.08c1.77-0.6,3.31-0.82,4.61-0.63c1.3,0.18,2.22,0.76,2.75,1.72c0.53,0.97,0.44,2.35-0.27,4.17
		l-11.34,28.28c-3.07,7.61-3.49,13.39-1.24,17.31c2.24,3.93,6.26,5.89,12.05,5.89c2.84,0,5.7-0.55,8.6-1.63
		c2.89-1.09,5.61-2.54,8.15-4.35c2.54-1.81,4.84-3.96,6.91-6.44c0.9-1.07,1.69-2.19,2.42-3.35c0.16,1.89,0.51,3.64,1.03,5.25
		c1.06,3.26,2.86,5.83,5.41,7.7c2.54,1.87,5.82,2.81,9.84,2.81c3.19,0,6.53-0.85,10.01-2.54c3.48-1.69,6.94-3.99,10.37-6.89
		c0.59,3.15,2.04,5.5,4.34,7.07c2.3,1.57,5.29,2.36,8.95,2.36c2.84,0,5.7-0.55,8.59-1.63c2.89-1.09,5.61-2.54,8.15-4.35
		c2.13-1.52,4.08-3.29,5.88-5.28c-0.11,2.22,0.15,4.12,0.85,5.64c1.71,3.75,5.94,5.62,12.67,5.62c2.6,0,4.78-0.18,6.56-0.55
		c1.06-0.24,2.07-0.48,3.01-0.72l3.55-7.8h-1.77c-2.72,0-4.43-0.72-5.14-2.17c-0.71-1.45-0.59-3.45,0.35-5.98
		c0.35-0.97,1.09-2.78,2.22-5.44c1.12-2.66,2.3-5.59,3.54-8.79c1.24-3.2,2.51-6.37,3.81-9.52c1.3-3.14,2.3-5.68,3.01-7.61
		c0.23-0.6,0.44-1.21,0.62-1.81c0.18-0.6,0.38-1.21,0.62-1.81c1.77-1.81,3.63-3.11,5.58-3.9c1.95-0.78,3.63-1.15,5.05-1.09
		c1.42,0.06,2.45,0.61,3.1,1.63c0.65,1.03,0.62,2.45-0.09,4.26l-11.52,28.28c-1.54,3.75-2.37,7.07-2.48,9.97
		c-0.12,2.9,0.35,5.32,1.42,7.25c1.06,1.93,2.63,3.38,4.7,4.35c2.07,0.97,4.52,1.45,7.36,1.45s5.7-0.55,8.6-1.63
		c2.89-1.09,5.61-2.54,8.15-4.35c2.54-1.81,4.84-3.96,6.91-6.44c2.07-2.47,3.69-5.17,4.88-8.07l-3.01-5.07
		c-1.54,3.26-3.49,5.8-5.85,7.61c-2.37,1.81-4.58,2.9-6.65,3.26c-2.07,0.36-3.7,0.06-4.88-0.9c-1.18-0.97-1.3-2.6-0.35-4.9
		c0.47-1.09,1.21-2.9,2.22-5.44c1-2.54,2.09-5.26,3.28-8.16c1.18-2.9,2.3-5.71,3.37-8.43c1.06-2.72,1.89-4.86,2.48-6.43
		c3.07-7.61,3.48-13.35,1.24-17.22c-2.25-3.87-6.27-5.8-12.05-5.8c-3.43,0-6.85,0.76-10.28,2.27c-3.43,1.51-6.56,3.6-9.39,6.25
		c-0.83-5.68-5.26-8.52-13.29-8.52c-1.18,0-2.34,0.06-3.46,0.18c-1.12,0.12-2.16,0.3-3.1,0.54c-1.06,0.24-2.07,0.48-3.01,0.72
		l-3.54,7.8h1.77c2.72,0,4.43,0.76,5.14,2.27c0.71,1.51,0.53,3.48-0.53,5.89l-12.76,29c-1.54,3.26-3.52,5.8-5.94,7.61
		c-2.42,1.81-4.64,2.9-6.65,3.26c-2.01,0.36-3.61,0.06-4.79-0.9c-1.18-0.97-1.3-2.6-0.35-4.9c0.24-0.72,0.86-2.32,1.86-4.8
		c1-2.48,2.18-5.41,3.54-8.79c1.36-3.38,2.81-6.98,4.34-10.79c1.53-3.81,3.01-7.43,4.43-10.88c1.42-3.44,2.66-6.49,3.72-9.15
		c1.06-2.66,1.77-4.53,2.13-5.62h-19.5c-0.24,0.24-0.44,0.7-0.62,1.36c-0.18,0.67-0.44,1.42-0.8,2.27
		c-2.37-3.38-5.85-5.08-10.46-5.08c-8.15,0-16.01,2.9-23.57,8.7c-7.56,5.8-13.89,14.86-18.96,27.19
		c-1.81,4.21-4.43,10.52-4.43,10.52c-1.54,3.26-3.52,5.8-5.94,7.61c-2.42,1.81-4.64,2.9-6.65,3.26c-2.01,0.36-3.61,0.06-4.79-0.9
		c-1.18-0.97-1.3-2.6-0.35-4.9l11.34-28.46c2.95-7.61,3.34-13.35,1.15-17.22c-2.19-3.87-6.17-5.8-11.96-5.8
		c-3.43,0-6.82,0.76-10.19,2.27c-3.37,1.51-6.47,3.53-9.3,6.07c-1.42-5.56-5.73-8.34-12.94-8.34c-3.31,0-6.62,0.73-9.93,2.18
		c-3.31,1.45-6.38,3.38-9.22,5.8c-1.06-5.32-5.5-7.98-13.29-7.98c-1.3,0-2.48,0.06-3.55,0.18c-1.06,0.12-2.07,0.3-3.01,0.54
		c-1.06,0.24-2.07,0.48-3.01,0.72l-3.54,7.8h1.77c2.6,0,4.25,0.76,4.96,2.27c0.71,1.51,0.59,3.48-0.35,5.89
		c-0.71,1.57-1.6,3.72-2.66,6.44c-1.06,2.72-2.22,5.62-3.46,8.7c-1.24,3.08-2.45,6.07-3.63,8.97c-0.94,2.31-3.01,4.9-3.01,4.9
		c-1.54,3.26-3.49,5.8-5.85,7.61c-2.37,1.81-4.58,2.9-6.65,3.26c-2.07,0.36-3.69,0.06-4.87-0.9c-1.18-0.97-1.3-2.6-0.35-4.9
		L749,98.39h33.76l-1.92-9.25h-28.29l5.33-13.13l-22.7,7.69l-2.13,5.44h-31.18l-8.77,9.25h36.23l-21.44,50.03
		c-1.54,3.26-3.52,5.8-5.94,7.61c-2.42,1.81-4.64,2.9-6.65,3.26c-2.01,0.36-3.61,0.06-4.79-0.9c-1.18-0.97-1.3-2.6-0.35-4.9
		c0.24-0.72,0.86-2.32,1.86-4.8c1-2.48,2.18-5.41,3.54-8.79c1.36-3.38,2.81-6.98,4.34-10.79c1.53-3.81,3.01-7.43,4.43-10.88
		c1.42-3.44,2.66-6.49,3.72-9.15c1.06-2.66,1.77-4.53,2.13-5.62h-19.5c-0.24,0.24-0.44,0.7-0.62,1.36c-0.18,0.67-0.44,1.42-0.8,2.27
		c-2.37-3.38-5.85-5.08-10.46-5.08c-8.15,0-16.01,2.9-23.57,8.7c-7.56,5.8-13.89,14.86-18.96,27.19
		c-1.81,4.21-4.43,10.52-4.43,10.52c-1.3,2.06-2.96,4.02-4.96,5.89c-2.01,1.88-4.23,3.51-6.65,4.9c-2.42,1.39-4.96,2.51-7.62,3.35
		s-5.23,1.27-7.71,1.27c-5.56,0-9.66-1.78-12.32-5.35c-2.66-3.56-3.22-8.07-1.68-13.5h11.34c6.97,0,13.12-2.23,18.43-6.7
		c3.78-3.26,6.59-6.98,8.42-11.15c1.83-4.17,2.6-8.09,2.3-11.78c-0.3-3.69-1.68-6.82-4.17-9.42c-2.48-2.6-6.15-3.9-10.99-3.9
		c-9.1,0-17.4,3.05-24.9,9.15c-7.51,6.1-13.5,15.02-17.99,26.74C571.47,142.86,570.59,147.55,570.71,151.96z"/>
	<path class="st0" d="M650.81,155.13c-0.12,2.3,0.27,4.11,1.15,5.44c0.89,1.33,2.33,2,4.34,2c2.01,0,4.19-0.6,6.56-1.81
		c2.36-1.21,4.72-2.9,7.09-5.07c0.35-1.57,0.89-3.14,1.6-4.71l14.71-36.8c-1.06-1.69-2.78-2.54-5.14-2.54
		c-2.25,0-4.34,0.45-6.29,1.36c-1.95,0.9-3.9,2.35-5.85,4.35c-1.95,1.99-3.93,4.62-5.94,7.89c-2.01,3.26-4.14,7.25-6.38,11.96
		c-1.77,3.51-3.16,6.8-4.17,9.88C651.49,150.14,650.93,152.83,650.81,155.13z"/>
	<path class="st0" d="M865.09,155.13c-0.12,2.3,0.27,4.11,1.15,5.44c0.89,1.33,2.33,2,4.34,2c2.01,0,4.19-0.6,6.56-1.81
		c2.36-1.21,4.72-2.9,7.09-5.07c0.35-1.57,0.89-3.14,1.6-4.71l14.71-36.8c-1.06-1.69-2.78-2.54-5.14-2.54
		c-2.25,0-4.34,0.45-6.29,1.36c-1.95,0.9-3.9,2.35-5.85,4.35c-1.95,1.99-3.93,4.62-5.94,7.89c-2.01,3.26-4.14,7.25-6.38,11.96
		c-1.77,3.51-3.16,6.8-4.17,9.88C865.77,150.14,865.21,152.83,865.09,155.13z"/>
	<path class="st0" d="M593.21,138.09h6.2c2.72,0,5.02-0.85,6.91-2.54c1.89-1.69,3.66-4.29,5.32-7.8c1.42-2.66,2.54-5.19,3.37-7.61
		c0.82-2.42,1.3-4.47,1.42-6.16c0.12-1.69-0.18-2.93-0.89-3.72c-0.71-0.78-1.95-0.82-3.72-0.09c-1.18,0.48-2.57,1.57-4.16,3.26
		c-1.6,1.69-3.22,3.81-4.88,6.35c-1.66,2.54-3.34,5.38-5.05,8.52C596.02,131.44,594.51,134.71,593.21,138.09z"/>
	<path class="st0" d="M413.1,76.63c1.95,37.77,37.05,47.61,37.05,47.61l-1.67-14.8c-8.73-2.74-18.04-21.94-1.79-40.98
		c16.25-19.05,53.63-18.37,53.63-18.37s-21.37,11.92-32.72,42.58c-3.6,9.72-5.71,20.25-4.6,30.64c1.03,9.66,4.62,21.25,14.04,25.76
		c5.29,2.53,11.42,2.65,17.23,1.93c12.85-1.59,25.78-1.98,34.13-11.87c-3.8,15.38-9.1,24.56-18.92,36.99
		c-4.91,6.21-10.14,12.16-15.81,17.69c-6.64,6.47-13.84,13.22-23.11,15.49c-8.39,2.05-18.63,0.41-23.34-7.57
		c-8.87-15.02,5.68-35.79,5.68-35.79s4.57,6.18,10.16,8.17c-0.45-0.11-1.52-18.36-1.57-18.49c-1.23-3.75-7.59-6.2-11.06-4.93
		c-4.79,1.75-9.77,6.43-13.16,10.14c-3.71,4.07-6.53,8.96-7.52,14.42c-2.35,12.97-0.83,30.68,8.86,40.53
		c7.55,7.68,18.37,9.84,28.8,8.99c4.32-0.35,8.59-1.18,12.77-2.28c13.32-3.52,24.51-12.19,33.91-21.77
		c14.94-15.24,16.5-21.7,23.17-33.97c5.42-9.97,10.89-19.91,16.45-29.79c12.81-22.76,25.66-46,41.29-66.98
		c0.91-1.22,1.83-2.42,2.77-3.61c22.76-28.62,38.51-24.76,38.51-24.76l8.74-12.91c-38.24-1.61-75.37,39.66-80.05,45.27
		c-4.67,5.61-45.37,72.15-68.02,48.6c-22.65-23.55,29.18-74.73,29.18-74.73c36.63-0.2,47.33-17.11,47.33-17.11
		s5.6-12.86-15.55-10.42c-21.14,2.43-45.24,20.74-45.25,20.74c-0.64,0.49-3.68-0.06-4.44-0.08c-9.11-0.19-18.21-0.7-27.32-0.75
		C458.25,40.11,411.47,45.06,413.1,76.63z"/>
	<path class="st0" d="M533.51,38.97l30.78-5.6c0,0-6.99-7.43-13.83-7.12C543.62,26.57,533.51,38.97,533.51,38.97z"/>
	<path class="st0" d="M219.56,44.16l30.78-5.6c0,0-6.99-7.43-13.83-7.12L219.56,44.16z"/>
	<path class="st0" d="M18.15,192.22c0.77,6.23,2.83,11.82,6.18,16.77c3.35,4.95,8.04,8.9,14.1,11.85
		c6.05,2.96,13.71,4.43,22.98,4.43c10.3,0,19.76-1.93,28.39-5.79c8.62-3.86,16.64-9.01,24.04-15.45c7.4-6.44,14.26-13.91,20.57-22.4
		c6.31-8.5,12.29-17.48,17.96-26.94c5.66-9.46,11.1-19.15,16.32-29.06c5.21-9.91,10.36-19.44,15.45-28.58
		c5.08-9.14,10.27-17.64,15.55-25.49c5.28-7.85,10.81-14.48,16.61-19.89c6.69,0.26,12.81-0.19,18.34-1.35
		c5.53-1.16,10.07-2.64,13.61-4.44c3.54-1.8,6.02-3.83,7.43-6.08c1.41-2.25,1.35-4.41-0.19-6.47c-1.16-1.54-2.74-2.7-4.73-3.47
		s-4.15-1.26-6.47-1.45c-2.32-0.19-4.67-0.19-7.05,0c-2.38,0.19-4.54,0.48-6.47,0.87c-5.15,1.03-10.04,2.61-14.68,4.73
		c-4.63,2.12-9.2,4.73-13.71,7.82h-0.39c-5.79,0.52-12.14,0.07-19.02-1.35c-6.89-1.42-13.97-2.99-21.24-4.73
		c-7.27-1.74-14.65-3.31-22.11-4.73c-7.47-1.41-14.71-1.96-21.73-1.64c-7.02,0.32-13.71,1.9-20.08,4.73
		c-6.37,2.84-12.14,7.6-17.28,14.29c-5.02,6.57-7.95,13.74-8.79,21.53c-0.84,7.79,0,15.16,2.51,22.11
		c2.51,6.95,6.37,13.03,11.59,18.25c5.21,5.21,11.36,8.66,18.44,10.33l7.53-6.18c-4.25-1.54-7.69-4.31-10.33-8.3
		c-2.64-3.99-4.25-8.56-4.83-13.71c-0.58-5.15-0.1-10.49,1.45-16.03c1.54-5.53,4.38-10.55,8.5-15.06
		c5.92-6.44,12.23-10.72,18.92-12.84c6.69-2.12,13.64-3.09,20.86-2.89c7.21,0.19,14.55,1,22.01,2.41c7.47,1.42,15,2.45,22.59,3.09
		c-6.69,6.18-13.07,13.26-19.12,21.24c-6.05,7.98-11.88,16.35-17.48,25.1c-5.6,8.76-11.04,17.74-16.32,26.94
		c-5.28,9.21-10.52,18.12-15.74,26.74c-5.21,8.63-10.36,16.74-15.45,24.33c-5.09,7.59-10.3,14.26-15.64,19.99
		c-5.34,5.73-10.81,10.24-16.41,13.52c-5.6,3.28-11.43,4.93-17.48,4.93c-6.57,0-11.85-1.41-15.83-4.23
		c-3.99-2.82-6.89-6.48-8.69-10.97c-1.8-4.49-2.64-9.56-2.51-15.2c0.13-5.65,1.06-11.26,2.8-16.83c1.74-5.58,4.25-10.84,7.53-15.78
		c3.28-4.94,7.11-9.01,11.49-12.22c-1.54,4.48-1.68,8.29-0.39,11.43c1.28,3.14,3.99,4.7,8.11,4.7c3.73,0,7.21-0.83,10.43-2.5
		c3.22-1.67,5.92-3.74,8.11-6.24c2.19-2.5,3.83-5.22,4.92-8.16c1.09-2.95,1.51-5.66,1.26-8.16c-0.26-2.5-1.32-4.57-3.19-6.24
		c-1.87-1.67-4.67-2.5-8.4-2.5c-6.83,0-13.23,1.48-19.22,4.44c-5.99,2.96-11.33,6.91-16.03,11.85c-4.7,4.95-8.69,10.54-11.97,16.77
		c-3.28,6.24-5.57,12.59-6.86,19.08C17.63,179.62,17.38,185.98,18.15,192.22z"/>
	<path class="st0" d="M192.52,159.81c1.41,3.48,3.67,6.21,6.76,8.21c3.09,1.99,7.02,2.99,11.78,2.99c4.89,0,9.62-0.87,14.19-2.61
		c4.57-1.74,8.88-4.28,12.94-7.63c4.05-3.35,7.75-7.37,11.1-12.07c3.35-4.7,6.18-10.07,8.5-16.12c2.06-5.28,3.22-10.24,3.48-14.87
		c0.26-4.63-0.32-8.69-1.74-12.17c-1.42-3.48-3.7-6.21-6.86-8.21c-3.16-1.99-7.05-2.99-11.68-2.99c-10.04,0-19.09,3.32-27.13,9.94
		c-8.05,6.63-14.52,16.06-19.41,28.29c-2.06,5.28-3.25,10.27-3.57,14.97C190.56,152.25,191.11,156.33,192.52,159.81z"/>
	<path class="st0" d="M211.06,159.72c0.64,1.61,1.74,2.41,3.28,2.41c1.55,0,3.25-0.8,5.12-2.41c1.87-1.61,3.77-3.75,5.7-6.45
		c1.93-2.69,3.86-5.8,5.79-9.33c1.93-3.53,3.67-7.22,5.21-11.07c1.54-3.98,2.8-7.76,3.77-11.36c0.97-3.59,1.57-6.77,1.84-9.53
		c0.26-2.76,0.13-4.97-0.39-6.64c-0.52-1.67-1.54-2.51-3.09-2.51c-1.54,0-3.28,0.84-5.21,2.51c-1.93,1.67-3.89,3.88-5.89,6.64
		c-2,2.76-3.96,5.93-5.89,9.53c-1.93,3.59-3.67,7.38-5.21,11.36c-1.54,3.85-2.83,7.54-3.86,11.07c-1.03,3.53-1.64,6.64-1.84,9.33
		C210.19,155.97,210.42,158.11,211.06,159.72z"/>
	<path class="st0" d="M260.21,165.02c1.87,3.99,6.47,5.99,13.81,5.99c2.83,0,5.21-0.19,7.14-0.58c1.16-0.26,2.25-0.52,3.28-0.77
		l3.86-8.3h-1.93c-2.96,0-4.83-0.77-5.6-2.32c-0.77-1.54-0.65-3.67,0.39-6.37c0.39-1.03,1.19-2.96,2.41-5.79
		c1.22-2.83,2.51-5.95,3.86-9.37c1.35-3.41,2.73-6.79,4.15-10.14c1.41-3.35,2.51-6.05,3.28-8.11c0.26-0.64,0.49-1.29,0.68-1.93
		c0.19-0.64,0.42-1.29,0.67-1.93c1.93-1.93,3.96-3.31,6.08-4.15c2.13-0.84,3.96-1.22,5.51-1.16c1.54,0.07,2.67,0.65,3.38,1.74
		c0.71,1.1,0.68,2.61-0.1,4.54l-12.55,30.13c-1.68,3.99-2.58,7.53-2.7,10.62s0.39,5.67,1.54,7.73c1.16,2.06,2.86,3.6,5.12,4.63
		c2.25,1.03,4.93,1.54,8.02,1.54s6.21-0.58,9.36-1.74c3.15-1.16,6.11-2.7,8.88-4.63c2.76-1.93,5.28-4.21,7.53-6.86
		c2.25-2.64,4.02-5.5,5.31-8.59l-3.28-5.41c-1.67,3.47-3.8,6.18-6.37,8.11c-2.58,1.93-4.99,3.09-7.24,3.48
		c-2.25,0.39-4.02,0.07-5.31-0.96c-1.29-1.03-1.42-2.77-0.39-5.21c0.51-1.16,1.32-3.09,2.42-5.79c1.09-2.7,2.28-5.6,3.57-8.69
		c1.29-3.09,2.51-6.08,3.67-8.98c1.16-2.9,2.06-5.18,2.7-6.86c3.35-8.11,3.8-14.22,1.35-18.35c-2.44-4.12-6.83-6.18-13.13-6.18
		c-3.74,0-7.47,0.81-11.2,2.41c-3.74,1.61-7.14,3.83-10.23,6.66c-0.9-6.05-5.73-9.08-14.49-9.08c-1.29,0-2.54,0.07-3.77,0.19
		c-1.22,0.13-2.35,0.32-3.38,0.58c-1.16,0.26-2.25,0.52-3.28,0.77l-3.86,8.3h1.93c2.96,0,4.83,0.81,5.6,2.41
		c0.77,1.61,0.58,3.7-0.58,6.28l-13.71,33.41C259.15,154.79,258.34,161.03,260.21,165.02z"/>
</g>
</svg>
